<?xml version="1.0"?>
<svg version="1.1" xmlns="http://www.w3.org/2000/svg" width="400px" height="200px" style="border: dashed 2px #aaa"><path fill="#fafafa" d="M61,98.65l18.85,0l0-3.8l-18.85,0q-3.7,0-6.2,2.9q-2.55,2.95-2.55,7.15q0,3.8,2.55,6.6q2.5,2.85,6.2,2.85l5,0l5.1,0q2.25,0,4,1.9q1.65,2,1.65,4.35q0,2.8-1.625,4.55t-4.025,1.75l-18.85,0l0,3.1l18.85,0q3.75,0,6.25-2.6t2.5-6.8q0-3.8-2.5-6.6q-2.55-2.8-6.25-2.8l-5.1,0l-5,0q-2.3,0-3.95-2q-1.7-1.85-1.7-4.3q0-2.8,1.625-4.525t4.025-1.725z M106.092,95l-15.7,0l-3.1,0l0,35.15l3.1,0l0-17.6l15.7,0q3.8,0,6.3-2.5t2.5-6.25q0-3.4-2.5-6.05q-2.65-2.75-6.3-2.75z M106.092,109.45l-15.7,0l0-11.35l15.7,0q2.3,0,4.05,1.65q1.65,1.75,1.65,4.05q0,2.35-1.65,4q-1.75,1.65-4.05,1.65z M134.384,95q-5.65,0-9.7,4.05q-4.1,4.1-4.1,9.75l0,7.55q0,5.55,4.1,9.65t9.7,4.1q5.65,0,9.75-4.1q4.05-4.05,4.05-9.65l0-7.55q0-5.7-4.05-9.75t-9.75-4.05z M145.084,108.8l0,7.55q0,4.55-3.2,7.65q-3.15,3-7.5,3t-7.45-3q-3.2-3.1-3.2-7.65l0-7.55q0-4.2,3.2-7.5q3.2-3.2,7.45-3.2q4.2,0,7.5,3.2q3.2,3.3,3.2,7.5z M170.776,112.45l3.75,0q3.8,0,6.3-2.5t2.5-6.3q0-3.35-2.5-6q-2.65-2.75-6.3-2.75l-15.65,0l-3.1,0l0,35.1l3.1,0l0-17.55l8.15,0l10.65,17.55l3.75,0z M158.876,109.35l0-11.3l15.65,0q2.3,0,4.05,1.65q1.65,1.65,1.65,3.95q0,2.4-1.65,4.05q-1.75,1.65-4.05,1.65l-15.65,0z M216.218,95l-27.1,0l0,3.05l12.3,0l0,32.05l3.1,0l0-32.05l11.7,0l0-3.05z M230.51,98.65l18.85,0l0-3.8l-18.85,0q-3.7,0-6.2,2.9q-2.55,2.95-2.55,7.15q0,3.8,2.55,6.6q2.5,2.85,6.2,2.85l5,0l5.1,0q2.25,0,4,1.9q1.65,2,1.65,4.35q0,2.8-1.625,4.55t-4.025,1.75l-18.85,0l0,3.1l18.85,0q3.75,0,6.25-2.6t2.5-6.8q0-3.8-2.5-6.6q-2.55-2.8-6.25-2.8l-5.1,0l-5,0q-2.3,0-3.95-2q-1.7-1.85-1.7-4.3q0-2.8,1.625-4.525t4.025-1.725z M268.102,94.95l-7.65,0l-1.9,0l-1.25,0l0,35.05l1.25,0l1.9,0l7.65,0q7.3,0,12.5-5.1q5.35-5.25,5.35-12.75q0-7.1-5.35-12.2q-5.25-5-12.5-5z M268.102,126.85l-7.65,0l0-28.65l7.65,0q6.25,0,10.5,4.1q4.2,4.1,4.2,9.85q0,6.25-4.2,10.45q-4.25,4.25-10.5,4.25z M296.344,120.4q0-2.4,1.7-4.35q1.7-2.05,4.1-2.05l0.65,0l9.35,0l0-3.1l-9.35,0l-0.65,0q-2.55-0.5-4.175-2.2t-1.625-4.05q0-2.95,1.725-4.675t4.725-1.725l17,0l0-3.15l-17,0q-3.85,0-6.7,2.85q-2.85,2.75-2.85,6.7q0,2.5,0.95,4.55t2.8,2.95q-1.85,1.35-2.8,3.55t-0.95,4.7q0,3.9,2.85,6.65q2.9,2.9,6.7,2.9l17,0l0-3.3l-17,0q-3,0-4.725-1.7t-1.725-4.55z M326.086,130l3.1,0l0-21.2q0-4.2,3.2-7.5q3.2-3.2,7.4-3.2t7.5,3.2q3.2,3.3,3.2,7.5l0,21.2l3.1,0l0-21.2q0-5.7-4.05-9.75t-9.75-4.05q-5.6,0-9.65,4.05t-4.05,9.75l0,21.2z"/><path fill="#fcfcfc" d=""/></svg>
