<?xml version="1.0"?>
<svg version="1.1" xmlns="http://www.w3.org/2000/svg" width="400px" height="252px" style="border: dashed 2px #aaa"><path fill="#fafafa" d="M18.6,124.299l23.751,0l0-4.788l-23.751,0q-4.662,0-7.812,3.654q-3.213,3.717-3.213,9.009q0,4.788,3.213,8.316q3.15,3.591,7.812,3.591l6.3,0l6.426,0q2.835,0,5.04,2.394q2.079,2.52,2.079,5.481q0,3.528-2.0475,5.733t-5.0715,2.205l-23.751,0l0,3.906l23.751,0q4.725,0,7.875-3.276t3.15-8.568q0-4.788-3.15-8.316q-3.213-3.528-7.875-3.528l-6.426,0l-6.3,0q-2.898,0-4.977-2.52q-2.142-2.331-2.142-5.418q0-3.528,2.0475-5.7015t5.0715-2.1735z M75.41592,119.7l-19.782,0l-3.906,0l0,44.289l3.906,0l0-22.176l19.782,0q4.788,0,7.938-3.15t3.15-7.875q0-4.284-3.15-7.623q-3.339-3.465-7.938-3.465z M75.41592,137.907l-19.782,0l0-14.301l19.782,0q2.898,0,5.103,2.079q2.079,2.205,2.079,5.103q0,2.961-2.079,5.04q-2.205,2.079-5.103,2.079z M111.06384,119.7q-7.119,0-12.222,5.103q-5.166,5.166-5.166,12.285l0,9.513q0,6.993,5.166,12.159t12.222,5.166q7.119,0,12.285-5.166q5.103-5.103,5.103-12.159l0-9.513q0-7.182-5.103-12.285t-12.285-5.103z M124.54584,137.088l0,9.513q0,5.733-4.032,9.639q-3.969,3.78-9.45,3.78t-9.387-3.78q-4.032-3.906-4.032-9.639l0-9.513q0-5.292,4.032-9.45q4.032-4.032,9.387-4.032q5.292,0,9.45,4.032q4.032,4.158,4.032,9.45z M156.91776,141.687l4.725,0q4.788,0,7.938-3.15t3.15-7.938q0-4.221-3.15-7.56q-3.339-3.465-7.938-3.465l-19.719,0l-3.906,0l0,44.226l3.906,0l0-22.113l10.269,0l13.419,22.113l4.725,0z M141.92376,137.781l0-14.238l19.719,0q2.898,0,5.103,2.079q2.079,2.079,2.079,4.977q0,3.024-2.079,5.103q-2.205,2.079-5.103,2.079l-19.719,0z M214.17468,119.7l-34.146,0l0,3.843l15.498,0l0,40.383l3.906,0l0-40.383l14.742,0l0-3.843z M232.1826,124.299l23.751,0l0-4.788l-23.751,0q-4.662,0-7.812,3.654q-3.213,3.717-3.213,9.009q0,4.788,3.213,8.316q3.15,3.591,7.812,3.591l6.3,0l6.426,0q2.835,0,5.04,2.394q2.079,2.52,2.079,5.481q0,3.528-2.0475,5.733t-5.0715,2.205l-23.751,0l0,3.906l23.751,0q4.725,0,7.875-3.276t3.15-8.568q0-4.788-3.15-8.316q-3.213-3.528-7.875-3.528l-6.426,0l-6.3,0q-2.898,0-4.977-2.52q-2.142-2.331-2.142-5.418q0-3.528,2.0475-5.7015t5.0715-2.1735z M279.54852,119.637l-9.639,0l-2.394,0l-1.575,0l0,44.163l1.575,0l2.394,0l9.639,0q9.198,0,15.75-6.426q6.741-6.615,6.741-16.065q0-8.946-6.741-15.372q-6.615-6.3-15.75-6.3z M279.54852,159.831l-9.639,0l0-36.099l9.639,0q7.875,0,13.23,5.166q5.292,5.166,5.292,12.411q0,7.875-5.292,13.167q-5.355,5.355-13.23,5.355z M315.13344,151.704q0-3.024,2.142-5.481q2.142-2.583,5.166-2.583l0.819,0l11.781,0l0-3.906l-11.781,0l-0.819,0q-3.213-0.63-5.2605-2.772t-2.0475-5.103q0-3.717,2.1735-5.8905t5.9535-2.1735l21.42,0l0-3.969l-21.42,0q-4.851,0-8.442,3.591q-3.591,3.465-3.591,8.442q0,3.15,1.197,5.733t3.528,3.717q-2.331,1.701-3.528,4.473t-1.197,5.922q0,4.914,3.591,8.379q3.654,3.654,8.442,3.654l21.42,0l0-4.158l-21.42,0q-3.78,0-5.9535-2.142t-2.1735-5.733z M352.60836,163.8l3.906,0l0-26.712q0-5.292,4.032-9.45q4.032-4.032,9.324-4.032t9.45,4.032q4.032,4.158,4.032,9.45l0,26.712l3.906,0l0-26.712q0-7.182-5.103-12.285t-12.285-5.103q-7.056,0-12.159,5.103t-5.103,12.285l0,26.712z"/><path fill="#fcfcfc" d=""/></svg>
